<svg aria-hidden="true" style="position: absolute; width: 0; height: 0; overflow: hidden;" version="1.1" xmlns="http://www.w3.org/2000/svg" xmlns:xlink="http://www.w3.org/1999/xlink">
<defs>
<symbol id="icon-logo" viewBox="0 0 64 64">
<path d="M43.556 32.047c3.876 2.833 8.19 2.975 12.693 2.098 0.166 3.141-3.141 8.676-5.867 9.861-0.332-0.83-0.652-1.671-0.984-2.501-0.095 0.024-0.19 0.036-0.273 0.059 0.806 2.489 0.344 4.859-0.628 7.17-0.972 2.287-2.169 4.397-4.575 5.748-0.118-1.825-1.067-3.010-2.216-4.077-0.308-0.296-0.687-0.533-1.067-0.723-0.687-0.356-0.877-0.794-0.415-1.422 0.45-0.616 1.007-1.138 1.576-1.754-0.237 0.024-0.486 0.012-0.711 0.083-1.458 0.415-2.513 1.339-3.33 2.596-1.588 2.43-3.153 4.895-4.812 7.301-0.913 1.327-1.979 2.56-3.046 3.781-0.391 0.45-0.913 0.83-1.458 1.090-0.972 0.474-1.896 0.095-2.24-0.924-0.616-1.825-0.735-3.71-0.367-5.606 0.273-1.434 0.628-2.856 0.865-4.29 0.344-2.074-0.201-3.84-2.074-5.025-0.83-0.522-1.707-0.996-2.524-1.541-0.877-0.581-1.718-1.221-2.584-1.825 0.024-0.071 0.036-0.13 0.059-0.202 1.446-0.569 2.868-1.209 4.338-1.671 1.956-0.616 3.947-1.126 5.926-1.636 1.114-0.284 2.477 0.036 3.508 0.64-0.64 0.202-1.387 0.45-2.145 0.676-0.142 0.047-0.332 0-0.486-0.047-0.533-0.178-1.043-0.379-1.576-0.569-0.024 0.059-0.059 0.107-0.083 0.166 0.356 0.32 0.699 0.652 1.197 1.102-0.391 0.083-0.676 0.213-0.936 0.178-1.031-0.142-2.062-0.344-3.093-0.522-0.154-0.024-0.32 0-0.498 0.071 0.427 0.569 1.114 0.45 1.659 0.664 0.569 0.213 1.173 0.332 1.79 0.51-0.095 0.427-0.367 0.545-0.77 0.522-1.896-0.083-3.781-0.154-5.677-0.213-0.332-0.012-0.652 0.024-0.984 0.036-0.012 0.071-0.024 0.154-0.036 0.225 0.273 0.059 0.545 0.166 0.83 0.178 1.908 0.142 3.816 0.284 5.724 0.415 0.13 0.012 0.273 0.036 0.462 0.059-0.012 0.202-0.012 0.379-0.024 0.604-1.47 0.142-2.904 0.296-4.338 0.438-0.012 0.083-0.024 0.178-0.024 0.261 0.19 0.047 0.379 0.142 0.569 0.142 1.256-0.012 2.524-0.047 3.84-0.083 0.012 0.225 0.024 0.403 0.036 0.593-0.794 0.249-1.541 0.486-2.299 0.723 0.012 0.071 0.036 0.13 0.047 0.202 0.759-0.118 1.517-0.237 2.311-0.367 0.059 0.202 0.107 0.379 0.166 0.604-0.687 0.391-1.351 0.782-2.027 1.173 0.024 0.059 0.047 0.107 0.071 0.166 0.853 0.024 1.517-0.569 2.323-0.818 0.083 0.142 0.166 0.296 0.261 0.45-0.747 0.652-1.47 1.292-2.204 1.932 0.036 0.047 0.071 0.095 0.107 0.13 1.007-0.19 1.754-1.161 2.785-1.233 0.036 0.083 0.071 0.178 0.107 0.261-1.090 1.398-2.193 2.797-3.283 4.196 0.047 0.047 0.107 0.095 0.154 0.142 0.119-0.095 0.249-0.19 0.367-0.308 1.007-1.007 2.015-2.003 2.998-3.034 0.332-0.344 0.616-0.474 1.031-0.012-1.564 2.335-3.153 4.693-4.741 7.064 0.059 0.047 0.107 0.095 0.166 0.142 0.19-0.202 0.403-0.379 0.569-0.593 1.517-1.92 3.046-3.84 4.527-5.784 0.379-0.498 0.723-0.664 1.316-0.284-1.873 3.401-3.97 6.696-5.772 10.157 0.071 0.059 0.154 0.107 0.225 0.166 0.178-0.202 0.379-0.379 0.533-0.604 2.003-3.058 4.006-6.104 5.985-9.185 0.356-0.557 0.758-0.972 1.387-1.197 0.332-0.118 0.64-0.296 0.936-0.486 0.166-0.107 0.273-0.284 0.332-0.522-0.616 0.225-1.244 0.45-1.861 0.676-1.138 0.415-2.204 0.261-3.2-0.45-1.588-1.126-2.655-2.524-2.536-4.587 0.059-1.078 0.545-1.908 1.47-2.489 1.292-0.806 2.702-1.209 4.207-1.233 1.79-0.024 3.212-0.794 4.433-2.038 0.261-0.273 0.687-0.486 1.055-0.533 2.003-0.296 3.923-0.036 5.713 0.996 1.244 0.723 1.683 2.027 1.007 3.33-0.415 0.806-0.96 1.541-1.434 2.287 1.446-0.616 2.643-2.501 2.572-4.077-0.036-0.853-0.486-1.493-1.161-1.967-1.41-0.996-3.034-1.292-4.705-1.398-3.544-0.225-7.004 0.403-10.453 1.114-5.594 1.15-11.034 2.88-16.439 4.693-0.201 0.071-0.415 0.107-0.723 0.19-0.225-0.794-0.438-1.564-0.687-2.477-0.415 1.043-0.154 1.92 0.083 2.773 0.249 0.865 0.545 1.73 0.711 2.702-0.64-0.604-1.351-1.15-1.896-1.837-0.557-0.699-0.924-1.541-1.399-2.335-0.284 0.794 0.32 1.375 0.51 2.169-1.055 0.32-2.11 0.664-3.188 0.96-1.553 0.427-3.117 0.652-4.741 0.557-1.73-0.107-2.442-1.043-1.766-2.678 0.036-0.095 0.059-0.19 0.095-0.308-0.19-0.118-0.367-0.225-0.545-0.344-1.564-0.972-2.062-2.24-1.363-3.935 0.521-1.256 1.138-2.489 1.884-3.615 1.92-2.904 3.721-5.867 5.274-8.984 1.434-2.88 3.721-5.096 6.246-7.016 1.375-1.043 2.868-1.944 4.373-2.797 1.15-0.652 2.074-1.434 2.75-2.584 2.050-3.461 4.492-6.637 7.253-9.564 0.13-0.142 0.273-0.296 0.415-0.427 0.604-0.533 1.090-0.474 1.493 0.213 1.162 2.015 2.773 3.461 4.954 4.373 2.702 1.138 5.416 2.323 7.964 3.769 4.219 2.394 7.609 5.748 10.157 9.896 0.427 0.699 0.735 1.482 1.090 2.228 0.047 0.107 0.059 0.225 0.095 0.379-0.356 0.059-0.687 0.083-1.007 0.166-0.474 0.119-0.51-0.261-0.593-0.545-0.012-0.047 0.32-0.201 0.51-0.296 0.047-0.024 0.107-0.024 0.19-0.036-0.154-0.415-0.438-0.415-0.77-0.356-0.19 0.036-0.427 0.107-0.569 0.024s-0.237-0.332-0.237-0.51c0-0.095 0.237-0.213 0.391-0.273 0.166-0.059 0.367-0.071 0.545-0.095 0-0.071 0-0.154 0-0.225-0.237-0.012-0.498-0.083-0.711-0.012-0.593 0.213-0.936-0.024-1.161-0.616 0.308-0.154 0.628-0.296 0.948-0.45-0.012-0.059-0.024-0.119-0.036-0.178-0.202 0.012-0.415 0.012-0.604 0.059-0.913 0.237-0.913 0.237-1.541-0.616 0.438-0.142 0.853-0.273 1.268-0.403-0.273-0.427-0.273-0.427-1.6 0.107-0.202-0.249-0.403-0.51-0.64-0.806 0.415-0.284 0.818-0.569 1.221-0.841-0.036-0.071-0.059-0.142-0.095-0.213-0.284 0.107-0.557 0.213-0.83 0.332-1.019 0.439-0.676 0.604-1.6-0.32 0.415-0.249 0.83-0.51 1.316-0.794-0.557-0.391-0.913-0.083-1.233 0.119-0.474 0.284-0.865 0.344-1.244-0.308 0.332-0.237 0.699-0.474 1.043-0.735 0.107-0.083 0.178-0.201 0.273-0.296-0.154-0.024-0.344-0.118-0.45-0.059-0.498 0.273-0.96 0.604-1.493 0.936-0.19-0.154-0.427-0.332-0.699-0.545 0.498-0.438 0.972-0.865 1.434-1.28-0.723-0.237-1.102 0.166-1.481 0.521-0.474 0.45-0.901 0.462-1.398-0.012 0.403-0.533 0.818-1.067 1.233-1.6-0.024-0.047-0.059-0.095-0.083-0.142-0.19 0.047-0.391 0.071-0.557 0.166-0.249 0.154-0.474 0.356-0.687 0.557-0.711 0.699-0.711 0.699-1.695 0.059 0.474-0.545 0.936-1.067 1.41-1.612-0.604-0.095-0.604-0.095-2.050 1.363-0.379-0.166-0.77-0.332-1.268-0.557 0.45-0.652 0.853-1.268 1.268-1.873-0.047-0.047-0.083-0.083-0.13-0.13-0.13 0.059-0.273 0.083-0.379 0.178-0.237 0.201-0.522 0.391-0.676 0.652-0.616 1.007-1.422 1.173-2.441 0.581 0.261-0.901 1.078-1.399 1.778-1.991-0.024-0.059-0.059-0.118-0.083-0.166-0.332 0.118-0.687 0.19-0.984 0.367-0.332 0.201-0.687 0.462-0.865 0.782-0.51 0.901-1.197 0.83-2.003 0.486 0.273-1.055 1.244-1.564 1.896-2.347-0.794-0.213-1.837 0.723-2.643 2.347-0.486-0.107-0.984-0.201-1.636-0.344 0.261-0.51 0.462-1.007 0.747-1.458 0.284-0.438 0.652-0.83 0.913-1.363-0.178 0.071-0.403 0.095-0.522 0.213-0.522 0.557-1.055 1.102-1.481 1.73-0.64 0.936-0.593 0.96-1.92 0.758 0.273-0.64 0.521-1.244 0.806-1.837 0.296-0.593 0.64-1.162 1.090-1.707-0.178 0.083-0.367 0.142-0.522 0.249-0.877 0.604-1.529 1.375-1.79 2.418-0.166 0.652-0.45 1.055-1.197 0.924-0.19-0.036-0.391 0.024-0.628 0.036 0-0.948 0.415-1.73 0.865-2.489s0.924-1.493 1.387-2.228c-0.036-0.036-0.083-0.083-0.119-0.119-0.213 0.166-0.45 0.32-0.628 0.521-1.067 1.209-2.086 2.43-2.37 4.089-0.024 0.13-0.19 0.308-0.308 0.332-0.439 0.083-0.889 0.107-1.41 0.166 0.344-2.513 1.73-4.385 3.259-6.21-0.83 0.261-1.47 0.782-1.884 1.458-0.877 1.41-1.683 2.856-2.418 4.338-0.237 0.486-0.462 0.818-0.996 0.924-0.249 0.047-0.498 0.154-0.711 0.284-0.178 0.107-0.296 0.296-0.439 0.45 0.036 0.047 0.059 0.095 0.095 0.154 0.273-0.047 0.557-0.071 0.83-0.13 8.901-1.873 17.019-0.237 24.166 5.523 1.636 1.316 2.987 2.927 4.006 4.788 0.059 0.119 0.107 0.237 0.166 0.379-1.304 0.213-2.596 0.32-3.828 0.628-2.536 0.652-5.049 1.41-7.585 2.11-0.237 0.059-0.557 0-0.794-0.107-0.593-0.296-1.15-0.652-1.79-0.924 1.766 1.647 2.584 3.721 2.927 6.116 0.344-0.841 0.984-0.557 1.553-0.51 3.378 0.273 6.696 0.747 9.825 2.157 0.095 0.036 0.19 0.059 0.284 0.083 0.036 0.012 0.071-0.024 0.261-0.095-0.202-0.178-0.32-0.344-0.486-0.45-1.813-1.090-3.816-1.576-5.89-1.837-1.588-0.19-3.176-0.308-4.764-0.486-0.213-0.024-0.415-0.166-0.581-0.379 5.262-0.237 10.465 0.024 15.538 1.529 0.024-0.047 0.047-0.095 0.083-0.154-0.19-0.119-0.367-0.273-0.569-0.356-2.394-1.067-4.93-1.529-7.526-1.588-2.252-0.047-4.492-0.012-6.744-0.036-0.284 0-0.758 0.213-0.818-0.427 6.282-0.723 12.539-1.031 18.809 0.367-0.19-0.13-0.367-0.284-0.581-0.379-1.659-0.782-3.437-0.948-5.227-1.114-4.231-0.403-8.391 0.119-12.563 0.676-0.379 0.047-0.723 0.107-0.758-0.498 6.744-1.659 13.535-2.335 20.409-0.604 0.024-0.083 0.047-0.166 0.071-0.261-0.344-0.178-0.676-0.439-1.043-0.521-1.41-0.296-2.821-0.581-4.243-0.759-2.382-0.308-4.764-0.19-7.135 0.178-2.596 0.391-5.191 0.83-7.775 1.256-0.225 0.036-0.438 0.071-0.664 0.107-0.024-0.059-0.047-0.119-0.071-0.166 0.107-0.071 0.213-0.166 0.332-0.201 3.97-1.15 7.941-2.287 12.077-2.643 2.489-0.225 4.978-0.059 7.372 0.723 0.723 0.237 1.434 0.593 2.050 1.019 0.936 0.652 1.019 1.47 0.284 2.323-2.678 3.081-5.997 4.93-10.121 5.25-2.88 0.225-5.606-0.332-8.249-1.458-0.32-0.142-0.652-0.261-0.972-0.403 0.083-0.024 0.059 0.024 0.047 0.071zM39.822 19.236v0c-0.45-0.13-0.652-0.83-1.292-0.616 1.161 1.837 1.529 2.607 1.138 3.994-0.652-0.676-1.707-0.984-1.659-2.193 0.012-0.273-0.19-0.557-0.32-0.818-0.379-0.747-1.363-1.363-2.086-1.327 1.588 1.327 2.157 3.769 1.375 4.966-0.391-0.996-0.853-1.896-1.991-2.098 0.747-2.975-1.114-5.025-3.259-5.002 0.166 0.107 0.284 0.19 0.427 0.273 1.718 0.948 2.453 2.477 2.596 4.373 0.024 0.273 0.166 0.593 0.356 0.794 1.185 1.292 1.801 2.714 1.209 4.48-0.071 0.213-0.118 0.439-0.202 0.782 0.818-0.723 1.233-1.47 1.043-2.465-0.036-0.213-0.118-0.474-0.036-0.628 0.344-0.628 0.747-1.221 1.114-1.813 1.067 0.901 1.553 2.11 1.813 3.615 0.32-0.818 0.284-1.434 0.024-2.062-0.071-0.166-0.13-0.379-0.095-0.545 0.095-0.415 0.249-0.818 0.391-1.244 1.363 0.723 1.553 2.027 1.636 3.425 0.118-0.913 0.45-1.718 1.031-2.406 0.723 0.664 0.723 1.564 0.616 2.56 0.747-0.711 0.533-2.193-0.32-2.773-0.284-0.19-0.379-0.379-0.391-0.711-0.047-1.162-0.616-1.932-1.754-2.228-0.438-0.13-0.901-0.225-1.363-0.332zM11.52 40.664c-0.32-0.32-0.474-0.51-0.652-0.652-1.884-1.588-4.124-2.276-6.519-2.501-0.462-0.047-0.984 0.107-1.434 0.296-1.102 0.462-1.339 1.339-0.604 2.276 0.474 0.593 1.067 1.102 1.647 1.695 0 0-0.024 0.071-0.047 0.142-0.237 0.877 0.071 1.316 0.96 1.292 0.474-0.012 0.972-0.047 1.399-0.225 1.73-0.723 3.425-1.505 5.25-2.323zM20.622 16.996c0.273-0.024 0.533-0.059 0.806-0.083 0.296-0.024 0.593-0.036 0.889-0.036 3.437-0.047 6.483 0.901 8.735 3.65 1.399 1.707 2.098 3.733 2.453 5.89 0.415 2.513-0.225 4.741-1.884 6.661-0.687 0.782-1.47 1.481-2.216 2.216-0.095 0.095-0.201 0.19-0.296 0.284 1.541-0.533 2.667-1.588 3.698-2.773 1.114-1.28 1.754-2.761 1.825-4.456 0.083-2.003-0.213-3.935-1.031-5.772-1.493-3.342-3.804-5.677-7.633-6.116-1.837-0.249-3.615-0.166-5.345 0.533zM26.11 36.717c5.677-3.081 6.898-9.588 2.904-14.436 2.24 5.452 1.636 10.335-2.904 14.436zM11.662 31.277c-0.367-0.071-0.676-0.119-1.043-0.19 0.924 0.936 1.991 1.055 2.987 0.367 0.877-0.604 1.126-1.221 0.782-1.932-0.178 0.308-0.356 0.616-0.616 1.079-0.083-0.486-0.118-0.782-0.19-1.162-0.296 0.474-0.557 1.007-1.079 0.64-0.723-0.51 0.083-0.853 0.308-1.244-0.498-0.261-0.996-0.13-1.422 0.332-0.51 0.557-0.474 0.924 0.273 2.11zM45.227 51.425c2.24-1.884 2.927-4.385 2.773-7.206-0.664 2.489-1.161 5.061-2.773 7.206zM46.483 45.073c-0.628 1.873-1.493 3.615-2.809 5.108 1.742-1.256 3.010-2.773 2.809-5.108zM45.239 45.487c-0.782 1.221-1.612 2.501-2.37 3.674 1.41-0.77 2.358-1.967 2.37-3.674zM43.828 45.63c-0.758 0.913-1.517 1.813-2.276 2.726 1.126-0.604 2.204-1.233 2.276-2.726zM5.013 34.477c-0.024 0.059-0.059 0.13-0.083 0.19 0.249 0.142 0.486 0.391 0.747 0.403 0.178 0.012 0.486-0.261 0.533-0.45 0.059-0.261-0.071-0.581-0.107-0.865-0.047 0-0.095 0-0.142 0-0.107 0.522-0.178 1.055-0.948 0.723z"></path>
<path d="M6.661 45.262c1.505-0.225 1.138-0.51 1.861 1.481-0.652-0.438-1.292-0.877-1.944-1.327 0.024-0.059 0.059-0.107 0.083-0.154z"></path>
<path d="M39.822 19.236c0.166 0.095 0.32 0.225 0.486 0.284 1.102 0.367 1.79 1.173 2.098 2.24 0.118 0.427-0.047 0.924-0.166 1.387-0.474-0.711-0.818-1.458-1.718-1.659-0.071-0.012-0.142-0.13-0.166-0.201-0.19-0.687-0.356-1.363-0.533-2.050v0z"></path>
</symbol>
</defs>
</svg>
