<?xml version="1.0" encoding="utf-8"?>
<!-- Generator: Adobe Illustrator 22.1.0, SVG Export Plug-In . SVG Version: 6.00 Build 0)  -->
<svg version="1.1" id="Шар_1" xmlns="http://www.w3.org/2000/svg" xmlns:xlink="http://www.w3.org/1999/xlink" x="0px" y="0px"
	 viewBox="0 0 540 540" style="enable-background:new 0 0 540 540;" xml:space="preserve">
<style type="text/css">
	.st0{fill:#7F7F7F;}
</style>
<g>
	<path class="st0" d="M367.5,270.4c32.7,23.9,69.1,25.1,107.1,17.7c1.4,26.5-26.5,73.2-49.5,83.2c-2.8-7-5.5-14.1-8.3-21.1
		c-0.8,0.2-1.6,0.3-2.3,0.5c6.8,21,2.9,41-5.3,60.5c-8.2,19.3-18.3,37.1-38.6,48.5c-1-15.4-9-25.4-18.7-34.4c-2.6-2.5-5.8-4.5-9-6.1
		c-5.8-3-7.4-6.7-3.5-12c3.8-5.2,8.5-9.6,13.3-14.8c-2,0.2-4.1,0.1-6,0.7c-12.3,3.5-21.2,11.3-28.1,21.9
		c-13.4,20.5-26.6,41.3-40.6,61.6c-7.7,11.2-16.7,21.6-25.7,31.9c-3.3,3.8-7.7,7-12.3,9.2c-8.2,4-16,0.8-18.9-7.8
		c-5.2-15.4-6.2-31.3-3.1-47.3c2.3-12.1,5.3-24.1,7.3-36.2c2.9-17.5-1.7-32.4-17.5-42.4c-7-4.4-14.4-8.4-21.3-13
		c-7.4-4.9-14.5-10.3-21.8-15.4c0.2-0.6,0.3-1.1,0.5-1.7c12.2-4.8,24.2-10.2,36.6-14.1c16.5-5.2,33.3-9.5,50-13.8
		c9.4-2.4,20.9,0.3,29.6,5.4c-5.4,1.7-11.7,3.8-18.1,5.7c-1.2,0.4-2.8,0-4.1-0.4c-4.5-1.5-8.8-3.2-13.3-4.8
		c-0.2,0.5-0.5,0.9-0.7,1.4c3,2.7,5.9,5.5,10.1,9.3c-3.3,0.7-5.7,1.8-7.9,1.5c-8.7-1.2-17.4-2.9-26.1-4.4c-1.3-0.2-2.7,0-4.2,0.6
		c3.6,4.8,9.4,3.8,14,5.6c4.8,1.8,9.9,2.8,15.1,4.3c-0.8,3.6-3.1,4.6-6.5,4.4c-16-0.7-31.9-1.3-47.9-1.8c-2.8-0.1-5.5,0.2-8.3,0.3
		c-0.1,0.6-0.2,1.3-0.3,1.9c2.3,0.5,4.6,1.4,7,1.5c16.1,1.2,32.2,2.4,48.3,3.5c1.1,0.1,2.3,0.3,3.9,0.5c-0.1,1.7-0.1,3.2-0.2,5.1
		c-12.4,1.2-24.5,2.5-36.6,3.7c-0.1,0.7-0.2,1.5-0.2,2.2c1.6,0.4,3.2,1.2,4.8,1.2c10.6-0.1,21.3-0.4,32.4-0.7c0.1,1.9,0.2,3.4,0.3,5
		c-6.7,2.1-13,4.1-19.4,6.1c0.1,0.6,0.3,1.1,0.4,1.7c6.4-1,12.8-2,19.5-3.1c0.5,1.7,0.9,3.2,1.4,5.1c-5.8,3.3-11.4,6.6-17.1,9.9
		c0.2,0.5,0.4,0.9,0.6,1.4c7.2,0.2,12.8-4.8,19.6-6.9c0.7,1.2,1.4,2.5,2.2,3.8c-6.3,5.5-12.4,10.9-18.6,16.3
		c0.3,0.4,0.6,0.8,0.9,1.1c8.5-1.6,14.8-9.8,23.5-10.4c0.3,0.7,0.6,1.5,0.9,2.2c-9.2,11.8-18.5,23.6-27.7,35.4
		c0.4,0.4,0.9,0.8,1.3,1.2c1-0.8,2.1-1.6,3.1-2.6c8.5-8.5,17-16.9,25.3-25.6c2.8-2.9,5.2-4,8.7-0.1c-13.2,19.7-26.6,39.6-40,59.6
		c0.5,0.4,0.9,0.8,1.4,1.2c1.6-1.7,3.4-3.2,4.8-5c12.8-16.2,25.7-32.4,38.2-48.8c3.2-4.2,6.1-5.6,11.1-2.4
		c-15.8,28.7-33.5,56.5-48.7,85.7c0.6,0.5,1.3,0.9,1.9,1.4c1.5-1.7,3.2-3.2,4.5-5.1c16.9-25.8,33.8-51.5,50.5-77.5
		c3-4.7,6.4-8.2,11.7-10.1c2.8-1,5.4-2.5,7.9-4.1c1.4-0.9,2.3-2.4,2.8-4.4c-5.2,1.9-10.5,3.8-15.7,5.7c-9.6,3.5-18.6,2.2-27-3.8
		c-13.4-9.5-22.4-21.3-21.4-38.7c0.5-9.1,4.6-16.1,12.4-21c10.9-6.8,22.8-10.2,35.5-10.4c15.1-0.2,27.1-6.7,37.4-17.2
		c2.2-2.3,5.8-4.1,8.9-4.5c16.9-2.5,33.1-0.3,48.2,8.4c10.5,6.1,14.2,17.1,8.5,28.1c-3.5,6.8-8.1,13-12.1,19.3
		c12.2-5.2,22.3-21.1,21.7-34.4c-0.3-7.2-4.1-12.6-9.8-16.6c-11.9-8.4-25.6-10.9-39.7-11.8c-29.9-1.9-59.1,3.4-88.2,9.4
		c-47.2,9.7-93.1,24.3-138.7,39.6c-1.7,0.6-3.5,0.9-6.1,1.6c-1.9-6.7-3.7-13.2-5.8-20.9c-3.5,8.8-1.3,16.2,0.7,23.4
		c2.1,7.3,4.6,14.6,6,22.8c-5.4-5.1-11.4-9.7-16-15.5c-4.7-5.9-7.8-13-11.8-19.7c-2.4,6.7,2.7,11.6,4.3,18.3
		c-8.9,2.7-17.8,5.6-26.9,8.1c-13.1,3.6-26.3,5.5-40,4.7c-14.6-0.9-20.6-8.8-14.9-22.6c0.3-0.8,0.5-1.6,0.8-2.6
		c-1.6-1-3.1-1.9-4.6-2.9c-13.2-8.2-17.4-18.9-11.5-33.2c4.4-10.6,9.6-21,15.9-30.5c16.2-24.5,31.4-49.5,44.5-75.8
		c12.1-24.3,31.4-43,52.7-59.2c11.6-8.8,24.2-16.4,36.9-23.6c9.7-5.5,17.5-12.1,23.2-21.8c17.3-29.2,37.9-56,61.2-80.7
		c1.1-1.2,2.3-2.5,3.5-3.6c5.1-4.5,9.2-4,12.6,1.8c9.8,17,23.4,29.2,41.8,36.9c22.8,9.6,45.7,19.6,67.2,31.8
		c35.6,20.2,64.2,48.5,85.7,83.5c3.6,5.9,6.2,12.5,9.2,18.8c0.4,0.9,0.5,1.9,0.8,3.2c-3,0.5-5.8,0.7-8.5,1.4c-4,1-4.3-2.2-5-4.6
		c-0.1-0.4,2.7-1.7,4.3-2.5c0.4-0.2,0.9-0.2,1.6-0.3c-1.3-3.5-3.7-3.5-6.5-3c-1.6,0.3-3.6,0.9-4.8,0.2c-1.2-0.7-2-2.8-2-4.3
		c0-0.8,2-1.8,3.3-2.3c1.4-0.5,3.1-0.6,4.6-0.8c0-0.6,0-1.3,0-1.9c-2-0.1-4.2-0.7-6-0.1c-5,1.8-7.9-0.2-9.8-5.2
		c2.6-1.3,5.3-2.5,8-3.8c-0.1-0.5-0.2-1-0.3-1.5c-1.7,0.1-3.5,0.1-5.1,0.5c-7.7,2-7.7,2-13-5.2c3.7-1.2,7.2-2.3,10.7-3.4
		c-2.3-3.6-2.3-3.6-13.5,0.9c-1.7-2.1-3.4-4.3-5.4-6.8c3.5-2.4,6.9-4.8,10.3-7.1c-0.3-0.6-0.5-1.2-0.8-1.8c-2.4,0.9-4.7,1.8-7,2.8
		c-8.6,3.7-5.7,5.1-13.5-2.7c3.5-2.1,7-4.3,11.1-6.7c-4.7-3.3-7.7-0.7-10.4,1c-4,2.4-7.3,2.9-10.5-2.6c2.8-2,5.9-4,8.8-6.2
		c0.9-0.7,1.5-1.7,2.3-2.5c-1.3-0.2-2.9-1-3.8-0.5c-4.2,2.3-8.1,5.1-12.6,7.9c-1.6-1.3-3.6-2.8-5.9-4.6c4.2-3.7,8.2-7.3,12.1-10.8
		c-6.1-2-9.3,1.4-12.5,4.4c-4,3.8-7.6,3.9-11.8-0.1c3.4-4.5,6.9-9,10.4-13.5c-0.2-0.4-0.5-0.8-0.7-1.2c-1.6,0.4-3.3,0.6-4.7,1.4
		c-2.1,1.3-4,3-5.8,4.7c-6,5.9-6,5.9-14.3,0.5c4-4.6,7.9-9,11.9-13.6c-5.1-0.8-5.1-0.8-17.3,11.5c-3.2-1.4-6.5-2.8-10.7-4.7
		c3.8-5.5,7.2-10.7,10.7-15.8c-0.4-0.4-0.7-0.7-1.1-1.1c-1.1,0.5-2.3,0.7-3.2,1.5c-2,1.7-4.4,3.3-5.7,5.5c-5.2,8.5-12,9.9-20.6,4.9
		c2.2-7.6,9.1-11.8,15-16.8c-0.2-0.5-0.5-1-0.7-1.4c-2.8,1-5.8,1.6-8.3,3.1c-2.8,1.7-5.8,3.9-7.3,6.6c-4.3,7.6-10.1,7-16.9,4.1
		c2.3-8.9,10.5-13.2,16-19.8c-6.7-1.8-15.5,6.1-22.3,19.8c-4.1-0.9-8.3-1.7-13.8-2.9c2.2-4.3,3.9-8.5,6.3-12.3
		c2.4-3.7,5.5-7,7.7-11.5c-1.5,0.6-3.4,0.8-4.4,1.8c-4.4,4.7-8.9,9.3-12.5,14.6c-5.4,7.9-5,8.1-16.2,6.4c2.3-5.4,4.4-10.5,6.8-15.5
		c2.5-5,5.4-9.8,9.2-14.4c-1.5,0.7-3.1,1.2-4.4,2.1c-7.4,5.1-12.9,11.6-15.1,20.4c-1.4,5.5-3.8,8.9-10.1,7.8
		c-1.6-0.3-3.3,0.2-5.3,0.3c0-8,3.5-14.6,7.3-21s7.8-12.6,11.7-18.8c-0.3-0.3-0.7-0.7-1-1c-1.8,1.4-3.8,2.7-5.3,4.4
		c-9,10.2-17.6,20.5-20,34.5c-0.2,1.1-1.6,2.6-2.6,2.8c-3.7,0.7-7.5,0.9-11.9,1.4c2.9-21.2,14.6-37,27.5-52.4
		c-7,2.2-12.4,6.6-15.9,12.3c-7.4,11.9-14.2,24.1-20.4,36.6c-2,4.1-3.9,6.9-8.4,7.8c-2.1,0.4-4.2,1.3-6,2.4
		c-1.5,0.9-2.5,2.5-3.7,3.8c0.3,0.4,0.5,0.8,0.8,1.3c2.3-0.4,4.7-0.6,7-1.1c75.1-15.8,143.6-2,203.9,46.6
		c13.8,11.1,25.2,24.7,33.8,40.4c0.5,1,0.9,2,1.4,3.2c-11,1.8-21.9,2.7-32.3,5.3c-21.4,5.5-42.6,11.9-64,17.8c-2,0.5-4.7,0-6.7-0.9
		c-5-2.5-9.7-5.5-15.1-7.8c14.9,13.9,21.8,31.4,24.7,51.6c2.9-7.1,8.3-4.7,13.1-4.3c28.5,2.3,56.5,6.3,82.9,18.2
		c0.8,0.3,1.6,0.5,2.4,0.7c0.3,0.1,0.6-0.2,2.2-0.8c-1.7-1.5-2.7-2.9-4.1-3.8c-15.3-9.2-32.2-13.3-49.7-15.5
		c-13.4-1.6-26.8-2.6-40.2-4.1c-1.8-0.2-3.5-1.4-4.9-3.2c44.4-2,88.3,0.2,131.1,12.9c0.2-0.4,0.4-0.8,0.7-1.3c-1.6-1-3.1-2.3-4.8-3
		c-20.2-9-41.6-12.9-63.5-13.4c-19-0.4-37.9-0.1-56.9-0.3c-2.4,0-6.4,1.8-6.9-3.6c53-6.1,105.8-8.7,158.7,3.1
		c-1.6-1.1-3.1-2.4-4.9-3.2c-14-6.6-29-8-44.1-9.4c-35.7-3.4-70.8,1-106,5.7c-3.2,0.4-6.1,0.9-6.4-4.2c56.9-14,114.2-19.7,172.2-5.1
		c0.2-0.7,0.4-1.4,0.6-2.2c-2.9-1.5-5.7-3.7-8.8-4.4c-11.9-2.5-23.8-4.9-35.8-6.4c-20.1-2.6-40.2-1.6-60.2,1.5
		c-21.9,3.3-43.8,7-65.6,10.6c-1.9,0.3-3.7,0.6-5.6,0.9c-0.2-0.5-0.4-1-0.6-1.4c0.9-0.6,1.8-1.4,2.8-1.7
		c33.5-9.7,67-19.3,101.9-22.3c21-1.9,42-0.5,62.2,6.1c6.1,2,12.1,5,17.3,8.6c7.9,5.5,8.6,12.4,2.4,19.6
		c-22.6,26-50.6,41.6-85.4,44.3c-24.3,1.9-47.3-2.8-69.6-12.3c-2.7-1.2-5.5-2.2-8.2-3.4C367.8,269.6,367.6,270,367.5,270.4z
		 M336,162.3L336,162.3c-3.8-1.1-5.5-7-10.9-5.2c9.8,15.5,12.9,22,9.6,33.7c-5.5-5.7-14.4-8.3-14-18.5c0.1-2.3-1.6-4.7-2.7-6.9
		c-3.2-6.3-11.5-11.5-17.6-11.2c13.4,11.2,18.2,31.8,11.6,41.9c-3.3-8.4-7.2-16-16.8-17.7c6.3-25.1-9.4-42.4-27.5-42.2
		c1.4,0.9,2.4,1.6,3.6,2.3c14.5,8,20.7,20.9,21.9,36.9c0.2,2.3,1.4,5,3,6.7c10,10.9,15.2,22.9,10.2,37.8c-0.6,1.8-1,3.7-1.7,6.6
		c6.9-6.1,10.4-12.4,8.8-20.8c-0.3-1.8-1-4-0.3-5.3c2.9-5.3,6.3-10.3,9.4-15.3c9,7.6,13.1,17.8,15.3,30.5c2.7-6.9,2.4-12.1,0.2-17.4
		c-0.6-1.4-1.1-3.2-0.8-4.6c0.8-3.5,2.1-6.9,3.3-10.5c11.5,6.1,13.1,17.1,13.8,28.9c1-7.7,3.8-14.5,8.7-20.3
		c6.1,5.6,6.1,13.2,5.2,21.6c6.3-6,4.5-18.5-2.7-23.4c-2.4-1.6-3.2-3.2-3.3-6c-0.4-9.8-5.2-16.3-14.8-18.8
		C343.8,164,339.9,163.2,336,162.3z M97.2,343.1c-2.7-2.7-4-4.3-5.5-5.5c-15.9-13.4-34.8-19.2-55-21.1c-3.9-0.4-8.3,0.9-12.1,2.5
		c-9.3,3.9-11.3,11.3-5.1,19.2c4,5,9,9.3,13.9,14.3c0,0-0.2,0.6-0.4,1.2c-2,7.4,0.6,11.1,8.1,10.9c4-0.1,8.2-0.4,11.8-1.9
		C67.5,356.6,81.8,350,97.2,343.1z M174,143.4c2.3-0.2,4.5-0.5,6.8-0.7c2.5-0.2,5-0.3,7.5-0.3c29-0.4,54.7,7.6,73.7,30.8
		c11.8,14.4,17.7,31.5,20.7,49.7c3.5,21.2-1.9,40-15.9,56.2c-5.8,6.6-12.4,12.5-18.7,18.7c-0.8,0.8-1.7,1.6-2.5,2.4
		c13-4.5,22.5-13.4,31.2-23.4c9.4-10.8,14.8-23.3,15.4-37.6c0.7-16.9-1.8-33.2-8.7-48.7c-12.6-28.2-32.1-47.9-64.4-51.6
		C203.6,136.8,188.6,137.5,174,143.4z M220.3,309.8c47.9-26,58.2-80.9,24.5-121.8C263.7,234,258.6,275.2,220.3,309.8z M98.4,263.9
		c-3.1-0.6-5.7-1-8.8-1.6c7.8,7.9,16.8,8.9,25.2,3.1c7.4-5.1,9.5-10.3,6.6-16.3c-1.5,2.6-3,5.2-5.2,9.1c-0.7-4.1-1-6.6-1.6-9.8
		c-2.5,4-4.7,8.5-9.1,5.4c-6.1-4.3,0.7-7.2,2.6-10.5c-4.2-2.2-8.4-1.1-12,2.8C91.8,250.8,92.1,253.9,98.4,263.9z M381.6,433.9
		c18.9-15.9,24.7-37,23.4-60.8C399.4,394.1,395.2,415.8,381.6,433.9z M392.2,380.3c-5.3,15.8-12.6,30.5-23.7,43.1
		C383.2,412.8,393.9,400,392.2,380.3z M381.7,383.8c-6.6,10.3-13.6,21.1-20,31C373.6,408.3,381.6,398.2,381.7,383.8z M369.8,385
		c-6.4,7.7-12.8,15.3-19.2,23C360.1,402.9,369.2,397.6,369.8,385z M42.3,290.9c-0.2,0.5-0.5,1.1-0.7,1.6c2.1,1.2,4.1,3.3,6.3,3.4
		c1.5,0.1,4.1-2.2,4.5-3.8c0.5-2.2-0.6-4.9-0.9-7.3c-0.4,0-0.8,0-1.2,0C49.4,289.2,48.8,293.7,42.3,290.9z"/>
	<path class="st0" d="M56.2,381.9c12.7-1.9,9.6-4.3,15.7,12.5c-5.5-3.7-10.9-7.4-16.4-11.2C55.7,382.7,56,382.3,56.2,381.9z"/>
	<path class="st0" d="M336,162.3c1.4,0.8,2.7,1.9,4.1,2.4c9.3,3.1,15.1,9.9,17.7,18.9c1,3.6-0.4,7.8-1.4,11.7c-4-6-6.9-12.3-14.5-14
		c-0.6-0.1-1.2-1.1-1.4-1.7C338.9,173.8,337.5,168.1,336,162.3L336,162.3z"/>
</g>
</svg>
